HIERARCHY
ROOT Hips
{
	OFFSET 0.000000 0.000000 0.000000
	CHANNELS 6 Xposition Yposition Zposition Zrotation Yrotation Xrotation 
	JOINT LHipJoint
	{
		OFFSET 0.000000 0.000000 0.000000
		CHANNELS 3 Zrotation Yrotation Xrotation
		JOINT LeftUpLeg
		{
			OFFSET 1.363060 -1.794630 0.839290
			CHANNELS 3 Zrotation Yrotation Xrotation
			JOINT LeftLeg
			{
				OFFSET 2.448110 -6.726130 0.000000
				CHANNELS 3 Zrotation Yrotation Xrotation
				JOINT LeftFoot
				{
					OFFSET 2.562200 -7.039590 0.000000
					CHANNELS 3 Zrotation Yrotation Xrotation
					JOINT LeftToeBase
					{
						OFFSET 0.157640 -0.433110 2.322550
						CHANNELS 3 Zrotation Yrotation Xrotation
						End Site
						{
							OFFSET 0.000000 0.000000 0.000000
						}
					}
				}
			}
		}
	}
	JOINT RHipJoint
	{
		OFFSET 0.000000 0.000000 0.000000
		CHANNELS 3 Zrotation Yrotation Xrotation
		JOINT RightUpLeg
		{
			OFFSET -1.305520 -1.794630 0.839290
			CHANNELS 3 Zrotation Yrotation Xrotation
			JOINT RightLeg
			{
				OFFSET -2.542530 -6.985550 0.000000
				CHANNELS 3 Zrotation Yrotation Xrotation
				JOINT RightFoot
				{
					OFFSET -2.568260 -7.056230 0.000000
					CHANNELS 3 Zrotation Yrotation Xrotation
					JOINT RightToeBase
					{
						OFFSET -0.164730 -0.452590 2.363150
						CHANNELS 3 Zrotation Yrotation Xrotation
						End Site
						{
							OFFSET 0.000000 0.000000 0.000000
						}
					}
				}
			}
		}
	}
	JOINT LowerBack
	{
		OFFSET 0.000000 0.000000 0.000000
		CHANNELS 3 Zrotation Yrotation Xrotation
		JOINT Spine
		{
			OFFSET 0.028270 2.035590 -0.193380
			CHANNELS 3 Zrotation Yrotation Xrotation
			JOINT Spine1
			{
				OFFSET 0.056720 2.048850 -0.042750
				CHANNELS 3 Zrotation Yrotation Xrotation
				JOINT Neck
				{
					OFFSET 0.000000 0.000000 0.000000
					CHANNELS 3 Zrotation Yrotation Xrotation
					JOINT Neck1
					{
						OFFSET -0.054170 1.746240 0.172020
						CHANNELS 3 Zrotation Yrotation Xrotation
						JOINT Head
						{
							OFFSET 0.104070 1.761360 -0.123970
							CHANNELS 3 Zrotation Yrotation Xrotation
							End Site
							{
								OFFSET 0.000000 0.000000 0.000000
							}
						}
					}
				}
				JOINT LeftShoulder
				{
					OFFSET 0.000000 0.000000 0.000000
					CHANNELS 3 Zrotation Yrotation Xrotation
					JOINT LeftArm
					{
						OFFSET 3.362410 1.200890 -0.311210
						CHANNELS 3 Zrotation Yrotation Xrotation
						JOINT LeftForeArm
						{
							OFFSET 4.983000 -0.000000 -0.000000
							CHANNELS 3 Zrotation Yrotation Xrotation
							JOINT LeftHand
							{
								OFFSET 3.483560 -0.000000 -0.000000
								CHANNELS 3 Zrotation Yrotation Xrotation
								JOINT LeftFingerBase
								{
									OFFSET 0.000000 0.000000 0.000000
									CHANNELS 3 Zrotation Yrotation Xrotation
									JOINT LeftHandIndex1
									{
										OFFSET 0.715260 -0.000000 -0.000000
										CHANNELS 3 Zrotation Yrotation Xrotation
										End Site
										{
											OFFSET 0.000000 0.000000 0.000000
										}
									}
								}
								JOINT LThumb
								{
									OFFSET 0.000000 0.000000 0.000000
									CHANNELS 3 Zrotation Yrotation Xrotation
									End Site
									{
										OFFSET 0.000000 0.000000 0.000000
									}
								}
							}
						}
					}
				}
				JOINT RightShoulder
				{
					OFFSET 0.000000 0.000000 0.000000
					CHANNELS 3 Zrotation Yrotation Xrotation
					JOINT RightArm
					{
						OFFSET -3.136600 1.374050 -0.404650
						CHANNELS 3 Zrotation Yrotation Xrotation
						JOINT RightForeArm
						{
							OFFSET -5.241900 -0.000000 -0.000000
							CHANNELS 3 Zrotation Yrotation Xrotation
							JOINT RightHand
							{
								OFFSET -3.444170 -0.000000 -0.000000
								CHANNELS 3 Zrotation Yrotation Xrotation
								JOINT RightFingerBase
								{
									OFFSET 0.000000 0.000000 0.000000
									CHANNELS 3 Zrotation Yrotation Xrotation
									JOINT RightHandIndex1
									{
										OFFSET -0.622530 -0.000000 -0.000000
										CHANNELS 3 Zrotation Yrotation Xrotation
										End Site
										{
											OFFSET 0.000000 0.000000 0.000000
										}
									}
								}
								JOINT RThumb
								{
									OFFSET 0.000000 0.000000 0.000000
									CHANNELS 3 Zrotation Yrotation Xrotation
									End Site
									{
										OFFSET 0.000000 0.000000 0.000000
									}
								}
							}
						}
					}
				}
			}
		}
	}
}
MOTION
Frames: 8
Frame Time: 0.008333
1.678521 17.793145 -1.107291 -170.494333 77.968866 -155.628772 -11.108077 3.735478 3.694915 -4.722214 -2.732848 -3.159000 -0.962449 0.003867 9.852645 0.673234 5.435325 5.425605 1.294101 0.000000 -45.758500 9.577053 -1.167682 0.653133 8.156835 -10.919743 -38.680129 1.916644 -2.445414 31.343142 -0.114407 -0.030597 9.229846 -0.393100 -0.000000 -61.411200 1.354769 -2.670637 -5.335514 -0.182859 -2.893144 -3.800127 -5.363313 -2.922580 0.309643 7.019108 -8.069512 -6.367219 -2.683929 -0.219745 0.392639 0.000000 0.000000 0.000000 10.439332 7.901129 -1.850213 -51.203880 -20.188464 -11.974018 179.363083 -84.512342 179.707876 28.351049 1.315427 0.185097 -0.466012 0.603939 -0.000000 0.000000 0.000000 0.000000 0.000000 0.000000 0.000000 6.727813 -5.209605 1.032138 75.731301 6.246212 -4.887344 2.202584 36.254015 -0.003196 -4.674121 4.688563 -0.201515 0.101665 -0.160898 -0.000000 0.000000 0.000000 0.000000 0.000000 0.000000 0.000000 
1.920510 17.912977 -1.090964 -169.479860 77.336834 -154.636688 -11.295484 3.914578 3.642928 -3.907802 -1.727754 -2.768060 -0.780457 0.081851 9.480840 0.832452 6.773941 7.349257 1.777600 -0.000000 -42.298100 9.466290 -1.351775 0.897690 8.642332 -10.735456 -37.425276 2.238776 -2.059312 26.589122 0.134872 1.078016 11.678785 -0.081500 0.000000 -63.005200 1.798985 -2.780024 -5.622801 -0.135090 -3.050326 -3.846389 -5.573850 -3.071827 0.367332 7.284247 -8.173460 -6.387496 -2.852737 -0.233196 0.394153 0.000000 0.000000 0.000000 11.265072 7.705464 -2.136932 -48.656878 -21.463312 -14.068003 179.163311 -82.449443 179.690396 28.919117 1.144379 0.136873 -0.478593 0.631551 -0.000000 0.000000 0.000000 0.000000 0.000000 0.000000 0.000000 7.729416 -5.642205 1.182389 76.791752 4.490595 -8.605546 2.333261 32.890188 -0.003724 -5.671200 5.165430 -0.267669 0.106549 -0.150072 -0.000000 0.000000 0.000000 0.000000 0.000000 0.000000 0.000000 
2.162082 18.019528 -1.072801 -168.895654 76.721181 -154.053262 -11.467459 4.057351 3.552615 -3.195817 -0.594422 -2.594436 -0.616584 0.151914 9.656733 1.020976 8.237824 8.597027 2.284500 -0.000000 -37.920500 9.377993 -1.503437 1.190019 8.915877 -10.393251 -36.175507 2.549304 -1.660567 22.008122 0.368085 2.124715 13.830264 0.282600 0.000000 -64.010900 2.150787 -2.896180 -5.911890 -0.103499 -3.206842 -3.890926 -5.769375 -3.220258 0.433298 7.560936 -8.373245 -6.442242 -3.003647 -0.245086 0.386339 0.000000 0.000000 0.000000 12.069754 7.535350 -2.412041 -45.984282 -22.656871 -16.361813 178.938644 -80.584290 179.673559 29.485834 0.925301 0.074019 -0.490312 0.657880 -0.000000 0.000000 0.000000 0.000000 0.000000 0.000000 0.000000 8.694541 -6.165087 1.320043 77.673122 2.741517 -12.320842 2.406111 30.022317 -0.004915 -6.981571 5.561489 -0.353027 0.111305 -0.140802 -0.000000 0.000000 0.000000 0.000000 0.000000 0.000000 0.000000 
2.403026 18.111966 -1.052785 -168.646202 76.137499 -153.783705 -11.617818 4.165519 3.433409 -2.580165 0.601335 -2.577961 -0.474130 0.213340 10.308742 1.226934 9.766320 9.223484 2.775200 0.000001 -33.088200 9.311491 -1.614998 1.519981 8.985114 -9.906611 -34.978878 2.836914 -1.258624 17.708954 0.577776 3.071564 15.638737 0.661700 0.000000 -64.425300 2.413864 -3.021602 -6.199295 -0.085905 -3.365580 -3.931550 -5.944172 -3.370993 0.512954 7.842002 -8.677810 -6.540814 -3.131769 -0.254922 0.366611 0.000000 0.000000 0.000000 12.848216 7.410790 -2.676071 -43.203271 -23.747129 -18.851728 178.696245 -78.909930 179.657645 30.026778 0.648589 -0.006871 -0.500738 0.683158 -0.000000 0.000000 0.000000 0.000000 0.000000 0.000000 0.000000 9.599251 -6.781359 1.446175 78.410568 1.019701 -15.853946 2.435307 27.607486 -0.006464 -8.503292 5.848355 -0.450489 0.115788 -0.132361 -0.000000 0.000000 0.000000 0.000000 0.000000 0.000000 0.000000 
2.643150 18.189891 -1.031206 -168.635240 75.598037 -153.734755 -11.743745 4.245562 3.298289 -2.049611 1.781961 -2.661105 -0.353543 0.269760 11.364492 1.440342 11.296894 9.338211 3.212100 -0.000000 -28.428101 9.263687 -1.684936 1.871598 8.881127 -9.313517 -33.885892 3.092297 -0.866609 13.793172 0.760504 3.900101 17.087502 1.024800 -0.000001 -64.307999 2.599547 -3.158344 -6.481246 -0.078814 -3.529590 -3.966516 -6.093751 -3.527342 0.609703 8.120106 -9.085593 -6.688098 -3.233836 -0.262364 0.333623 0.000000 0.000000 0.000000 13.593957 7.347175 -2.927725 -40.338472 -24.702784 -21.523390 178.443666 -77.416298 179.642899 30.525765 0.312548 -0.107000 -0.509631 0.707410 -0.000000 0.000000 0.000000 0.000000 0.000000 0.000000 0.000000 10.424148 -7.485135 1.561250 79.032184 -0.651108 -19.094020 2.438080 25.575815 -0.008088 -10.106786 5.996554 -0.547552 0.119897 -0.124297 -0.000000 0.000000 0.000000 0.000000 0.000000 0.000000 0.000000 
2.882291 18.253291 -1.008404 -168.784534 75.113442 -153.833142 -11.844628 4.306680 3.161232 -1.594702 2.872138 -2.796616 -0.253273 0.326923 12.764164 1.652419 12.769100 9.072029 3.567499 -0.000000 -24.511000 9.231210 -1.716992 2.225601 8.649040 -8.671024 -32.943408 3.310070 -0.499610 10.347434 0.917056 4.617998 18.186999 1.355900 0.000000 -63.747099 2.720907 -3.307805 -6.753429 -0.078574 -3.701380 -3.993954 -6.214648 -3.692129 0.727083 8.389274 -9.596443 -6.887412 -3.307761 -0.267151 0.286455 0.000000 0.000000 0.000000 14.298998 7.357758 -3.164895 -37.421131 -25.490124 -24.349036 178.188377 -76.088266 179.629500 30.978042 -0.075726 -0.224564 -0.517056 0.730411 -0.000000 0.000000 0.000000 0.000000 0.000000 0.000000 0.000000 11.156620 -8.274402 1.664605 79.551182 -2.235725 -21.980020 2.431381 23.834368 -0.009547 -11.658274 5.985653 -0.629612 0.123628 -0.116413 -0.000000 0.000000 0.000000 0.000000 0.000000 0.000000 0.000000 
3.120291 18.302545 -0.984938 -169.010435 74.693752 -154.001074 -11.924285 4.357896 3.032003 -1.200764 3.827294 -2.959381 -0.171816 0.391140 14.474496 1.853309 14.112879 8.531822 3.816900 0.000000 -21.581001 9.209227 -1.720253 2.566880 8.342415 -8.023635 -32.176906 3.489053 -0.169586 7.411975 1.049209 5.232676 18.990860 1.646299 0.000000 -62.920900 2.797847 -3.469012 -7.012830 -0.080852 -3.881641 -4.013944 -6.306213 -3.866397 0.862460 8.644070 -10.187801 -7.132817 -3.354465 -0.269341 0.226691 0.000000 0.000000 0.000000 14.956414 7.440383 -3.381620 -34.489187 -26.062523 -27.288375 177.938054 -74.904112 179.617556 31.390085 -0.499976 -0.354961 -0.523496 0.751684 -0.000000 0.000000 0.000000 0.000000 0.000000 0.000000 0.000000 11.792924 -9.123811 1.755758 79.969414 -3.724162 -24.514401 2.428234 22.310221 -0.010709 -13.031372 5.800809 -0.681569 0.126982 -0.108711 -0.000000 0.000000 0.000000 0.000000 0.000000 0.000000 0.000000 
3.357107 18.338231 -0.961363 -169.235950 74.347460 -154.164433 -11.989521 4.406290 2.914436 -0.851272 4.637497 -3.148836 -0.108510 0.468353 16.484132 2.032687 15.259127 7.796368 3.941701 0.000000 -19.622600 9.192424 -1.706411 2.889222 8.006597 -7.383508 -31.587198 3.630351 0.116680 4.978256 1.157422 5.733432 19.584581 1.886300 0.000000 -62.007000 2.852234 -3.638894 -7.259492 -0.081167 -4.069205 -4.027202 -6.369215 -4.049305 1.013618 8.879910 -10.839727 -7.417226 -3.375906 -0.269078 0.156218 0.000000 0.000000 0.000000 15.560589 7.590199 -3.571664 -31.590149 -26.380468 -30.288008 177.699287 -73.837094 179.607085 31.777917 -0.937153 -0.491679 -0.529718 0.770621 -0.000000 0.000000 0.000000 0.000000 0.000000 0.000000 0.000000 12.333962 -10.012075 1.833397 80.280646 -5.105660 -26.716570 2.438184 20.935498 -0.011533 -14.130583 5.441927 -0.693420 0.130061 -0.101257 -0.000000 0.000000 0.000000 0.000000 0.000000 0.000000 0.000000 
